# xmcd
#
# Track frame offsets: 
#        150
#        12259
#        26694
#        39826
#        52782
#        69719
#        82157
#        93808
#        107375
#        119367
#        132193
#        147075
#        164002
#        174115
#        186953
#        202011
#        219418
#        228955
#        241617
#
# Disc length: 3373 seconds
#
# Revision: 0
# Processed by: cddbd v1.5.2PL0 Copyright (c) Steve Scherf et al.
# Submitted via: ExactAudioCopy v1.3
#
DISCID=f30d2b13
DTITLE=Hank Snow - Most Requested Of All Time
DYEAR=2014
DGENRE=Country
TTITLE0=Green, Green Grass Of Home
TTITLE1=Squid Jiggin' Ground
TTITLE2=These Hands
TTITLE3=I'm Movin' On
TTITLE4=Black Diamond
TTITLE5=I've Been Everywhere
TTITLE6=My Nova Scotia Home
TTITLE7=Just A Faded Petal From A Beautiful Bouquet
TTITLE8=The Last Ride
TTITLE9=(Now And Then There's) A Fool Such As I
TTITLE10=A Daisy A Day
TTITLE11=My Mother
TTITLE12=Down The Trail Of Achin' Hearts (W Anita Carter)
TTITLE13=Hello Love
TTITLE14=Little Buddy
TTITLE15=Nobody's Child
TTITLE16=Snowbird
TTITLE17=Yellow roses
TTITLE18=Am I Losing You (Instrumental - Previously Unissued Bonus Tra
TTITLE18=ck)
EXTD=
EXTT0=
EXTT1=
EXTT2=
EXTT3=
EXTT4=
EXTT5=
EXTT6=
EXTT7=
EXTT8=
EXTT9=
EXTT10=
EXTT11=
EXTT12=
EXTT13=
EXTT14=
EXTT15=
EXTT16=
EXTT17=
EXTT18=
PLAYORDER=
